<svg width="845" height="758" viewBox="0 0 845 758" fill="none" xmlns="http://www.w3.org/2000/svg">
<circle cx="8.25" cy="0.25" r="0.25" fill="#C8F636"/>
<circle cx="47.75" cy="0.25" r="0.25" fill="#C8F636"/>
<circle cx="87.25" cy="0.25" r="0.25" fill="#C8F636"/>
<circle cx="126.75" cy="0.25" r="0.25" fill="#C8F636"/>
<circle cx="166.25" cy="0.25" r="0.25" fill="#C8F636"/>
<circle cx="205.75" cy="0.25" r="0.25" fill="#C8F636"/>
<circle cx="245.25" cy="0.25" r="0.25" fill="#C8F636"/>
<circle cx="284.75" cy="0.25" r="0.25" fill="#C8F636"/>
<circle cx="324.25" cy="0.25" r="0.25" fill="#C8F636"/>
<circle cx="363.75" cy="0.25" r="0.25" fill="#C8F636"/>
<circle cx="403.25" cy="0.25" r="0.25" fill="#C8F636"/>
<circle cx="8.25" cy="36.25" r="0.25" fill="#C8F636"/>
<circle cx="47.75" cy="36.25" r="0.25" fill="#C8F636"/>
<circle cx="87.25" cy="36.25" r="0.25" fill="#C8F636"/>
<circle cx="126.75" cy="36.25" r="0.25" fill="#C8F636"/>
<circle cx="166.25" cy="36.25" r="0.25" fill="#C8F636"/>
<circle cx="205.75" cy="36.25" r="0.25" fill="#C8F636"/>
<circle cx="245.25" cy="36.25" r="0.25" fill="#C8F636"/>
<circle cx="284.75" cy="36.25" r="0.25" fill="#C8F636"/>
<circle cx="324.25" cy="36.25" r="0.25" fill="#C8F636"/>
<circle cx="363.75" cy="36.25" r="0.25" fill="#C8F636"/>
<circle cx="403.25" cy="36.25" r="0.25" fill="#C8F636"/>
<circle cx="8.25" cy="72.25" r="0.25" fill="#C8F636"/>
<circle cx="47.75" cy="72.25" r="0.25" fill="#C8F636"/>
<circle cx="87.25" cy="72.25" r="0.25" fill="#C8F636"/>
<circle cx="126.75" cy="72.25" r="0.25" fill="#C8F636"/>
<circle cx="166.25" cy="72.25" r="0.25" fill="#C8F636"/>
<circle cx="205.75" cy="72.25" r="0.25" fill="#C8F636"/>
<circle cx="245.25" cy="72.25" r="0.25" fill="#C8F636"/>
<circle cx="284.75" cy="72.25" r="0.25" fill="#C8F636"/>
<circle cx="324.25" cy="72.25" r="0.25" fill="#C8F636"/>
<circle cx="363.75" cy="72.25" r="0.25" fill="#C8F636"/>
<circle cx="403.25" cy="72.25" r="0.25" fill="#C8F636"/>
<circle cx="8.25" cy="108.25" r="0.25" fill="#C8F636"/>
<circle cx="47.75" cy="108.25" r="0.25" fill="#C8F636"/>
<circle cx="87.25" cy="108.25" r="0.25" fill="#C8F636"/>
<circle cx="126.75" cy="108.25" r="0.25" fill="#C8F636"/>
<circle cx="166.25" cy="108.25" r="0.25" fill="#C8F636"/>
<circle cx="205.75" cy="108.25" r="0.25" fill="#C8F636"/>
<circle cx="245.25" cy="108.25" r="0.25" fill="#C8F636"/>
<circle cx="284.75" cy="108.25" r="0.25" fill="#C8F636"/>
<circle cx="324.25" cy="108.25" r="0.25" fill="#C8F636"/>
<circle cx="363.75" cy="108.25" r="0.25" fill="#C8F636"/>
<circle cx="403.25" cy="108.25" r="0.25" fill="#C8F636"/>
<circle cx="7.75" cy="144.25" r="0.25" fill="#C8F636"/>
<circle cx="47.25" cy="144.25" r="0.25" fill="#C8F636"/>
<circle cx="86.75" cy="144.25" r="0.25" fill="#C8F636"/>
<circle cx="126.25" cy="144.25" r="0.25" fill="#C8F636"/>
<circle cx="165.75" cy="144.25" r="0.25" fill="#C8F636"/>
<circle cx="205.25" cy="144.25" r="0.25" fill="#C8F636"/>
<circle cx="244.75" cy="144.25" r="0.25" fill="#C8F636"/>
<circle cx="284.25" cy="144.25" r="0.25" fill="#C8F636"/>
<circle cx="323.75" cy="144.25" r="0.25" fill="#C8F636"/>
<circle cx="363.25" cy="144.25" r="0.25" fill="#C8F636"/>
<circle cx="402.75" cy="144.25" r="0.25" fill="#C8F636"/>
<circle cx="7.25" cy="180.25" r="0.25" fill="#C8F636"/>
<circle cx="46.75" cy="180.25" r="0.25" fill="#C8F636"/>
<circle cx="86.25" cy="180.25" r="0.25" fill="#C8F636"/>
<circle cx="125.75" cy="180.25" r="0.25" fill="#C8F636"/>
<circle cx="165.25" cy="180.25" r="0.25" fill="#C8F636"/>
<circle cx="204.75" cy="180.25" r="0.25" fill="#C8F636"/>
<circle cx="244.25" cy="180.25" r="0.25" fill="#C8F636"/>
<circle cx="283.75" cy="180.25" r="0.25" fill="#C8F636"/>
<circle cx="323.25" cy="180.25" r="0.25" fill="#C8F636"/>
<circle cx="362.75" cy="180.25" r="0.25" fill="#C8F636"/>
<circle cx="402.25" cy="180.25" r="0.25" fill="#C8F636"/>
<circle cx="6.75" cy="216.25" r="0.25" fill="#C8F636"/>
<circle cx="46.25" cy="216.25" r="0.25" fill="#C8F636"/>
<circle cx="85.75" cy="216.25" r="0.25" fill="#C8F636"/>
<circle cx="125.25" cy="216.25" r="0.25" fill="#C8F636"/>
<circle cx="164.75" cy="216.25" r="0.25" fill="#C8F636"/>
<circle cx="204.25" cy="216.25" r="0.25" fill="#C8F636"/>
<circle cx="243.75" cy="216.25" r="0.25" fill="#C8F636"/>
<circle cx="283.25" cy="216.25" r="0.25" fill="#C8F636"/>
<circle cx="322.75" cy="216.25" r="0.25" fill="#C8F636"/>
<circle cx="362.25" cy="216.25" r="0.25" fill="#C8F636"/>
<circle cx="401.75" cy="216.25" r="0.25" fill="#C8F636"/>
<circle cx="6.25" cy="252.25" r="0.25" fill="#C8F636"/>
<circle cx="45.75" cy="252.25" r="0.25" fill="#C8F636"/>
<circle cx="85.25" cy="252.25" r="0.25" fill="#C8F636"/>
<circle cx="124.75" cy="252.25" r="0.25" fill="#C8F636"/>
<circle cx="164.25" cy="252.25" r="0.25" fill="#C8F636"/>
<circle cx="203.75" cy="252.25" r="0.25" fill="#C8F636"/>
<circle cx="243.25" cy="252.25" r="0.25" fill="#C8F636"/>
<circle cx="282.75" cy="252.25" r="0.25" fill="#C8F636"/>
<circle cx="322.25" cy="252.25" r="0.25" fill="#C8F636"/>
<circle cx="361.75" cy="252.25" r="0.25" fill="#C8F636"/>
<circle cx="401.25" cy="252.25" r="0.25" fill="#C8F636"/>
<circle cx="5.75" cy="288.25" r="0.25" fill="#C8F636"/>
<circle cx="45.25" cy="288.25" r="0.25" fill="#C8F636"/>
<circle cx="84.75" cy="288.25" r="0.25" fill="#C8F636"/>
<circle cx="124.25" cy="288.25" r="0.25" fill="#C8F636"/>
<circle cx="163.75" cy="288.25" r="0.25" fill="#C8F636"/>
<circle cx="203.25" cy="288.25" r="0.25" fill="#C8F636"/>
<circle cx="242.75" cy="288.25" r="0.25" fill="#C8F636"/>
<circle cx="282.25" cy="288.25" r="0.25" fill="#C8F636"/>
<circle cx="321.75" cy="288.25" r="0.25" fill="#C8F636"/>
<circle cx="361.25" cy="288.25" r="0.25" fill="#C8F636"/>
<circle cx="400.75" cy="288.25" r="0.25" fill="#C8F636"/>
<circle cx="5.25" cy="324.25" r="0.25" fill="#C8F636"/>
<circle cx="44.75" cy="324.25" r="0.25" fill="#C8F636"/>
<circle cx="84.25" cy="324.25" r="0.25" fill="#C8F636"/>
<circle cx="123.75" cy="324.25" r="0.25" fill="#C8F636"/>
<circle cx="163.25" cy="324.25" r="0.25" fill="#C8F636"/>
<circle cx="202.75" cy="324.25" r="0.25" fill="#C8F636"/>
<circle cx="242.25" cy="324.25" r="0.25" fill="#C8F636"/>
<circle cx="281.75" cy="324.25" r="0.25" fill="#C8F636"/>
<circle cx="321.25" cy="324.25" r="0.25" fill="#C8F636"/>
<circle cx="360.75" cy="324.25" r="0.25" fill="#C8F636"/>
<circle cx="400.25" cy="324.25" r="0.25" fill="#C8F636"/>
<circle cx="4.75" cy="360.25" r="0.25" fill="#C8F636"/>
<circle cx="44.25" cy="360.25" r="0.25" fill="#C8F636"/>
<circle cx="83.75" cy="360.25" r="0.25" fill="#C8F636"/>
<circle cx="123.25" cy="360.25" r="0.25" fill="#C8F636"/>
<circle cx="162.75" cy="360.25" r="0.25" fill="#C8F636"/>
<circle cx="202.25" cy="360.25" r="0.25" fill="#C8F636"/>
<circle cx="241.75" cy="360.25" r="0.25" fill="#C8F636"/>
<circle cx="281.25" cy="360.25" r="0.25" fill="#C8F636"/>
<circle cx="320.75" cy="360.25" r="0.25" fill="#C8F636"/>
<circle cx="360.25" cy="360.25" r="0.25" fill="#C8F636"/>
<circle cx="399.75" cy="360.25" r="0.25" fill="#C8F636"/>
<circle cx="4.25" cy="396.25" r="0.25" fill="#C8F636"/>
<circle cx="43.75" cy="396.25" r="0.25" fill="#C8F636"/>
<circle cx="83.25" cy="396.25" r="0.25" fill="#C8F636"/>
<circle cx="122.75" cy="396.25" r="0.25" fill="#C8F636"/>
<circle cx="162.25" cy="396.25" r="0.25" fill="#C8F636"/>
<circle cx="201.75" cy="396.25" r="0.25" fill="#C8F636"/>
<circle cx="241.25" cy="396.25" r="0.25" fill="#C8F636"/>
<circle cx="280.75" cy="396.25" r="0.25" fill="#C8F636"/>
<circle cx="320.25" cy="396.25" r="0.25" fill="#C8F636"/>
<circle cx="359.75" cy="396.25" r="0.25" fill="#C8F636"/>
<circle cx="399.25" cy="396.25" r="0.25" fill="#C8F636"/>
<circle cx="3.75" cy="432.25" r="0.25" fill="#C8F636"/>
<circle cx="43.25" cy="432.25" r="0.25" fill="#C8F636"/>
<circle cx="82.75" cy="432.25" r="0.25" fill="#C8F636"/>
<circle cx="122.25" cy="432.25" r="0.25" fill="#C8F636"/>
<circle cx="161.75" cy="432.25" r="0.25" fill="#C8F636"/>
<circle cx="201.25" cy="432.25" r="0.25" fill="#C8F636"/>
<circle cx="240.75" cy="432.25" r="0.25" fill="#C8F636"/>
<circle cx="280.25" cy="432.25" r="0.25" fill="#C8F636"/>
<circle cx="319.75" cy="432.25" r="0.25" fill="#C8F636"/>
<circle cx="359.25" cy="432.25" r="0.25" fill="#C8F636"/>
<circle cx="398.75" cy="432.25" r="0.25" fill="#C8F636"/>
<circle cx="3.25" cy="468.25" r="0.25" fill="#C8F636"/>
<circle cx="42.75" cy="468.25" r="0.25" fill="#C8F636"/>
<circle cx="82.25" cy="468.25" r="0.25" fill="#C8F636"/>
<circle cx="121.75" cy="468.25" r="0.25" fill="#C8F636"/>
<circle cx="161.25" cy="468.25" r="0.25" fill="#C8F636"/>
<circle cx="200.75" cy="468.25" r="0.25" fill="#C8F636"/>
<circle cx="240.25" cy="468.25" r="0.25" fill="#C8F636"/>
<circle cx="279.75" cy="468.25" r="0.25" fill="#C8F636"/>
<circle cx="319.25" cy="468.25" r="0.25" fill="#C8F636"/>
<circle cx="358.75" cy="468.25" r="0.25" fill="#C8F636"/>
<circle cx="398.25" cy="468.25" r="0.25" fill="#C8F636"/>
<circle cx="3.25" cy="504.25" r="0.25" fill="#C8F636"/>
<circle cx="42.75" cy="504.25" r="0.25" fill="#C8F636"/>
<circle cx="82.25" cy="504.25" r="0.25" fill="#C8F636"/>
<circle cx="121.75" cy="504.25" r="0.25" fill="#C8F636"/>
<circle cx="161.25" cy="504.25" r="0.25" fill="#C8F636"/>
<circle cx="200.75" cy="504.25" r="0.25" fill="#C8F636"/>
<circle cx="240.25" cy="504.25" r="0.25" fill="#C8F636"/>
<circle cx="279.75" cy="504.25" r="0.25" fill="#C8F636"/>
<circle cx="319.25" cy="504.25" r="0.25" fill="#C8F636"/>
<circle cx="358.75" cy="504.25" r="0.25" fill="#C8F636"/>
<circle cx="398.25" cy="504.25" r="0.25" fill="#C8F636"/>
<circle cx="3.25" cy="540.25" r="0.25" fill="#C8F636"/>
<circle cx="42.75" cy="540.25" r="0.25" fill="#C8F636"/>
<circle cx="82.25" cy="540.25" r="0.25" fill="#C8F636"/>
<circle cx="121.75" cy="540.25" r="0.25" fill="#C8F636"/>
<circle cx="161.25" cy="540.25" r="0.25" fill="#C8F636"/>
<circle cx="200.75" cy="540.25" r="0.25" fill="#C8F636"/>
<circle cx="240.25" cy="540.25" r="0.25" fill="#C8F636"/>
<circle cx="279.75" cy="540.25" r="0.25" fill="#C8F636"/>
<circle cx="319.25" cy="540.25" r="0.25" fill="#C8F636"/>
<circle cx="358.75" cy="540.25" r="0.25" fill="#C8F636"/>
<circle cx="398.25" cy="540.25" r="0.25" fill="#C8F636"/>
<circle cx="2.75" cy="576.25" r="0.25" fill="#C8F636"/>
<circle cx="42.25" cy="576.25" r="0.25" fill="#C8F636"/>
<circle cx="81.75" cy="576.25" r="0.25" fill="#C8F636"/>
<circle cx="121.25" cy="576.25" r="0.25" fill="#C8F636"/>
<circle cx="160.75" cy="576.25" r="0.25" fill="#C8F636"/>
<circle cx="200.25" cy="576.25" r="0.25" fill="#C8F636"/>
<circle cx="239.75" cy="576.25" r="0.25" fill="#C8F636"/>
<circle cx="279.25" cy="576.25" r="0.25" fill="#C8F636"/>
<circle cx="318.75" cy="576.25" r="0.25" fill="#C8F636"/>
<circle cx="358.25" cy="576.25" r="0.25" fill="#C8F636"/>
<circle cx="397.75" cy="576.25" r="0.25" fill="#C8F636"/>
<circle cx="2.25" cy="612.25" r="0.25" fill="#C8F636"/>
<circle cx="41.75" cy="612.25" r="0.25" fill="#C8F636"/>
<circle cx="81.25" cy="612.25" r="0.25" fill="#C8F636"/>
<circle cx="120.75" cy="612.25" r="0.25" fill="#C8F636"/>
<circle cx="160.25" cy="612.25" r="0.25" fill="#C8F636"/>
<circle cx="199.75" cy="612.25" r="0.25" fill="#C8F636"/>
<circle cx="239.25" cy="612.25" r="0.25" fill="#C8F636"/>
<circle cx="278.75" cy="612.25" r="0.25" fill="#C8F636"/>
<circle cx="318.25" cy="612.25" r="0.25" fill="#C8F636"/>
<circle cx="357.75" cy="612.25" r="0.25" fill="#C8F636"/>
<circle cx="397.25" cy="612.25" r="0.25" fill="#C8F636"/>
<circle cx="1.75" cy="648.25" r="0.25" fill="#C8F636"/>
<circle cx="41.25" cy="648.25" r="0.25" fill="#C8F636"/>
<circle cx="80.75" cy="648.25" r="0.25" fill="#C8F636"/>
<circle cx="120.25" cy="648.25" r="0.25" fill="#C8F636"/>
<circle cx="159.75" cy="648.25" r="0.25" fill="#C8F636"/>
<circle cx="199.25" cy="648.25" r="0.25" fill="#C8F636"/>
<circle cx="238.75" cy="648.25" r="0.25" fill="#C8F636"/>
<circle cx="278.25" cy="648.25" r="0.25" fill="#C8F636"/>
<circle cx="317.75" cy="648.25" r="0.25" fill="#C8F636"/>
<circle cx="357.25" cy="648.25" r="0.25" fill="#C8F636"/>
<circle cx="396.75" cy="648.25" r="0.25" fill="#C8F636"/>
<circle cx="1.25" cy="684.25" r="0.25" fill="#C8F636"/>
<circle cx="40.75" cy="684.25" r="0.25" fill="#C8F636"/>
<circle cx="80.25" cy="684.25" r="0.25" fill="#C8F636"/>
<circle cx="119.75" cy="684.25" r="0.25" fill="#C8F636"/>
<circle cx="159.25" cy="684.25" r="0.25" fill="#C8F636"/>
<circle cx="198.75" cy="684.25" r="0.25" fill="#C8F636"/>
<circle cx="238.25" cy="684.25" r="0.25" fill="#C8F636"/>
<circle cx="277.75" cy="684.25" r="0.25" fill="#C8F636"/>
<circle cx="317.25" cy="684.25" r="0.25" fill="#C8F636"/>
<circle cx="356.75" cy="684.25" r="0.25" fill="#C8F636"/>
<circle cx="396.25" cy="684.25" r="0.25" fill="#C8F636"/>
<circle cx="0.75" cy="720.25" r="0.25" fill="#C8F636"/>
<circle cx="40.25" cy="720.25" r="0.25" fill="#C8F636"/>
<circle cx="79.75" cy="720.25" r="0.25" fill="#C8F636"/>
<circle cx="119.25" cy="720.25" r="0.25" fill="#C8F636"/>
<circle cx="158.75" cy="720.25" r="0.25" fill="#C8F636"/>
<circle cx="198.25" cy="720.25" r="0.25" fill="#C8F636"/>
<circle cx="237.75" cy="720.25" r="0.25" fill="#C8F636"/>
<circle cx="277.25" cy="720.25" r="0.25" fill="#C8F636"/>
<circle cx="316.75" cy="720.25" r="0.25" fill="#C8F636"/>
<circle cx="356.25" cy="720.25" r="0.25" fill="#C8F636"/>
<circle cx="395.75" cy="720.25" r="0.25" fill="#C8F636"/>
<circle cx="0.25" cy="756.25" r="0.25" fill="#C8F636"/>
<circle cx="39.75" cy="756.25" r="0.25" fill="#C8F636"/>
<circle cx="79.25" cy="756.25" r="0.25" fill="#C8F636"/>
<circle cx="118.75" cy="756.25" r="0.25" fill="#C8F636"/>
<circle cx="158.25" cy="756.25" r="0.25" fill="#C8F636"/>
<circle cx="197.75" cy="756.25" r="0.25" fill="#C8F636"/>
<circle cx="237.25" cy="756.25" r="0.25" fill="#C8F636"/>
<circle cx="276.75" cy="756.25" r="0.25" fill="#C8F636"/>
<circle cx="316.25" cy="756.25" r="0.25" fill="#C8F636"/>
<circle cx="355.75" cy="756.25" r="0.25" fill="#C8F636"/>
<circle cx="395.25" cy="756.25" r="0.25" fill="#C8F636"/>
<circle cx="449.25" cy="1.25" r="0.25" fill="#C8F636"/>
<circle cx="488.75" cy="1.25" r="0.25" fill="#C8F636"/>
<circle cx="528.25" cy="1.25" r="0.25" fill="#C8F636"/>
<circle cx="567.75" cy="1.25" r="0.25" fill="#C8F636"/>
<circle cx="607.25" cy="1.25" r="0.25" fill="#C8F636"/>
<circle cx="646.75" cy="1.25" r="0.25" fill="#C8F636"/>
<circle cx="686.25" cy="1.25" r="0.25" fill="#C8F636"/>
<circle cx="725.75" cy="1.25" r="0.25" fill="#C8F636"/>
<circle cx="765.25" cy="1.25" r="0.25" fill="#C8F636"/>
<circle cx="804.75" cy="1.25" r="0.25" fill="#C8F636"/>
<circle cx="844.25" cy="1.25" r="0.25" fill="#C8F636"/>
<circle cx="449.25" cy="37.25" r="0.25" fill="#C8F636"/>
<circle cx="488.75" cy="37.25" r="0.25" fill="#C8F636"/>
<circle cx="528.25" cy="37.25" r="0.25" fill="#C8F636"/>
<circle cx="567.75" cy="37.25" r="0.25" fill="#C8F636"/>
<circle cx="607.25" cy="37.25" r="0.25" fill="#C8F636"/>
<circle cx="646.75" cy="37.25" r="0.25" fill="#C8F636"/>
<circle cx="686.25" cy="37.25" r="0.25" fill="#C8F636"/>
<circle cx="725.75" cy="37.25" r="0.25" fill="#C8F636"/>
<circle cx="765.25" cy="37.25" r="0.25" fill="#C8F636"/>
<circle cx="804.75" cy="37.25" r="0.25" fill="#C8F636"/>
<circle cx="844.25" cy="37.25" r="0.25" fill="#C8F636"/>
<circle cx="449.25" cy="73.25" r="0.25" fill="#C8F636"/>
<circle cx="488.75" cy="73.25" r="0.25" fill="#C8F636"/>
<circle cx="528.25" cy="73.25" r="0.25" fill="#C8F636"/>
<circle cx="567.75" cy="73.25" r="0.25" fill="#C8F636"/>
<circle cx="607.25" cy="73.25" r="0.25" fill="#C8F636"/>
<circle cx="646.75" cy="73.25" r="0.25" fill="#C8F636"/>
<circle cx="686.25" cy="73.25" r="0.25" fill="#C8F636"/>
<circle cx="725.75" cy="73.25" r="0.25" fill="#C8F636"/>
<circle cx="765.25" cy="73.25" r="0.25" fill="#C8F636"/>
<circle cx="804.75" cy="73.25" r="0.25" fill="#C8F636"/>
<circle cx="844.25" cy="73.25" r="0.25" fill="#C8F636"/>
<circle cx="449.25" cy="109.25" r="0.25" fill="#C8F636"/>
<circle cx="488.75" cy="109.25" r="0.25" fill="#C8F636"/>
<circle cx="528.25" cy="109.25" r="0.25" fill="#C8F636"/>
<circle cx="567.75" cy="109.25" r="0.25" fill="#C8F636"/>
<circle cx="607.25" cy="109.25" r="0.25" fill="#C8F636"/>
<circle cx="646.75" cy="109.25" r="0.25" fill="#C8F636"/>
<circle cx="686.25" cy="109.25" r="0.25" fill="#C8F636"/>
<circle cx="725.75" cy="109.25" r="0.25" fill="#C8F636"/>
<circle cx="765.25" cy="109.25" r="0.25" fill="#C8F636"/>
<circle cx="804.75" cy="109.25" r="0.25" fill="#C8F636"/>
<circle cx="844.25" cy="109.25" r="0.25" fill="#C8F636"/>
<circle cx="448.75" cy="145.25" r="0.25" fill="#C8F636"/>
<circle cx="488.25" cy="145.25" r="0.25" fill="#C8F636"/>
<circle cx="527.75" cy="145.25" r="0.25" fill="#C8F636"/>
<circle cx="567.25" cy="145.25" r="0.25" fill="#C8F636"/>
<circle cx="606.75" cy="145.25" r="0.25" fill="#C8F636"/>
<circle cx="646.25" cy="145.25" r="0.25" fill="#C8F636"/>
<circle cx="685.75" cy="145.25" r="0.25" fill="#C8F636"/>
<circle cx="725.25" cy="145.25" r="0.25" fill="#C8F636"/>
<circle cx="764.75" cy="145.25" r="0.25" fill="#C8F636"/>
<circle cx="804.25" cy="145.25" r="0.25" fill="#C8F636"/>
<circle cx="843.75" cy="145.25" r="0.25" fill="#C8F636"/>
<circle cx="448.25" cy="181.25" r="0.25" fill="#C8F636"/>
<circle cx="487.75" cy="181.25" r="0.25" fill="#C8F636"/>
<circle cx="527.25" cy="181.25" r="0.25" fill="#C8F636"/>
<circle cx="566.75" cy="181.25" r="0.25" fill="#C8F636"/>
<circle cx="606.25" cy="181.25" r="0.25" fill="#C8F636"/>
<circle cx="645.75" cy="181.25" r="0.25" fill="#C8F636"/>
<circle cx="685.25" cy="181.25" r="0.25" fill="#C8F636"/>
<circle cx="724.75" cy="181.25" r="0.25" fill="#C8F636"/>
<circle cx="764.25" cy="181.25" r="0.25" fill="#C8F636"/>
<circle cx="803.75" cy="181.25" r="0.25" fill="#C8F636"/>
<circle cx="843.25" cy="181.25" r="0.25" fill="#C8F636"/>
<circle cx="447.75" cy="217.25" r="0.25" fill="#C8F636"/>
<circle cx="487.25" cy="217.25" r="0.25" fill="#C8F636"/>
<circle cx="526.75" cy="217.25" r="0.25" fill="#C8F636"/>
<circle cx="566.25" cy="217.25" r="0.25" fill="#C8F636"/>
<circle cx="605.75" cy="217.25" r="0.25" fill="#C8F636"/>
<circle cx="645.25" cy="217.25" r="0.25" fill="#C8F636"/>
<circle cx="684.75" cy="217.25" r="0.25" fill="#C8F636"/>
<circle cx="724.25" cy="217.25" r="0.25" fill="#C8F636"/>
<circle cx="763.75" cy="217.25" r="0.25" fill="#C8F636"/>
<circle cx="803.25" cy="217.25" r="0.25" fill="#C8F636"/>
<circle cx="842.75" cy="217.25" r="0.25" fill="#C8F636"/>
<circle cx="447.25" cy="253.25" r="0.25" fill="#C8F636"/>
<circle cx="486.75" cy="253.25" r="0.25" fill="#C8F636"/>
<circle cx="526.25" cy="253.25" r="0.25" fill="#C8F636"/>
<circle cx="565.75" cy="253.25" r="0.25" fill="#C8F636"/>
<circle cx="605.25" cy="253.25" r="0.25" fill="#C8F636"/>
<circle cx="644.75" cy="253.25" r="0.25" fill="#C8F636"/>
<circle cx="684.25" cy="253.25" r="0.25" fill="#C8F636"/>
<circle cx="723.75" cy="253.25" r="0.25" fill="#C8F636"/>
<circle cx="763.25" cy="253.25" r="0.25" fill="#C8F636"/>
<circle cx="802.75" cy="253.25" r="0.25" fill="#C8F636"/>
<circle cx="842.25" cy="253.25" r="0.25" fill="#C8F636"/>
<circle cx="446.75" cy="289.25" r="0.25" fill="#C8F636"/>
<circle cx="486.25" cy="289.25" r="0.25" fill="#C8F636"/>
<circle cx="525.75" cy="289.25" r="0.25" fill="#C8F636"/>
<circle cx="565.25" cy="289.25" r="0.25" fill="#C8F636"/>
<circle cx="604.75" cy="289.25" r="0.25" fill="#C8F636"/>
<circle cx="644.25" cy="289.25" r="0.25" fill="#C8F636"/>
<circle cx="683.75" cy="289.25" r="0.25" fill="#C8F636"/>
<circle cx="723.25" cy="289.25" r="0.25" fill="#C8F636"/>
<circle cx="762.75" cy="289.25" r="0.25" fill="#C8F636"/>
<circle cx="802.25" cy="289.25" r="0.25" fill="#C8F636"/>
<circle cx="841.75" cy="289.25" r="0.25" fill="#C8F636"/>
<circle cx="446.25" cy="325.25" r="0.25" fill="#C8F636"/>
<circle cx="485.75" cy="325.25" r="0.25" fill="#C8F636"/>
<circle cx="525.25" cy="325.25" r="0.25" fill="#C8F636"/>
<circle cx="564.75" cy="325.25" r="0.25" fill="#C8F636"/>
<circle cx="604.25" cy="325.25" r="0.25" fill="#C8F636"/>
<circle cx="643.75" cy="325.25" r="0.25" fill="#C8F636"/>
<circle cx="683.25" cy="325.25" r="0.25" fill="#C8F636"/>
<circle cx="722.75" cy="325.25" r="0.25" fill="#C8F636"/>
<circle cx="762.25" cy="325.25" r="0.25" fill="#C8F636"/>
<circle cx="801.75" cy="325.25" r="0.25" fill="#C8F636"/>
<circle cx="841.25" cy="325.25" r="0.25" fill="#C8F636"/>
<circle cx="445.75" cy="361.25" r="0.25" fill="#C8F636"/>
<circle cx="485.25" cy="361.25" r="0.25" fill="#C8F636"/>
<circle cx="524.75" cy="361.25" r="0.25" fill="#C8F636"/>
<circle cx="564.25" cy="361.25" r="0.25" fill="#C8F636"/>
<circle cx="603.75" cy="361.25" r="0.25" fill="#C8F636"/>
<circle cx="643.25" cy="361.25" r="0.25" fill="#C8F636"/>
<circle cx="682.75" cy="361.25" r="0.25" fill="#C8F636"/>
<circle cx="722.25" cy="361.25" r="0.25" fill="#C8F636"/>
<circle cx="761.75" cy="361.25" r="0.25" fill="#C8F636"/>
<circle cx="801.25" cy="361.25" r="0.25" fill="#C8F636"/>
<circle cx="840.75" cy="361.25" r="0.25" fill="#C8F636"/>
<circle cx="445.25" cy="397.25" r="0.25" fill="#C8F636"/>
<circle cx="484.75" cy="397.25" r="0.25" fill="#C8F636"/>
<circle cx="524.25" cy="397.25" r="0.25" fill="#C8F636"/>
<circle cx="563.75" cy="397.25" r="0.25" fill="#C8F636"/>
<circle cx="603.25" cy="397.25" r="0.25" fill="#C8F636"/>
<circle cx="642.75" cy="397.25" r="0.25" fill="#C8F636"/>
<circle cx="682.25" cy="397.25" r="0.25" fill="#C8F636"/>
<circle cx="721.75" cy="397.25" r="0.25" fill="#C8F636"/>
<circle cx="761.25" cy="397.25" r="0.25" fill="#C8F636"/>
<circle cx="800.75" cy="397.25" r="0.25" fill="#C8F636"/>
<circle cx="840.25" cy="397.25" r="0.25" fill="#C8F636"/>
<circle cx="444.75" cy="433.25" r="0.25" fill="#C8F636"/>
<circle cx="484.25" cy="433.25" r="0.25" fill="#C8F636"/>
<circle cx="523.75" cy="433.25" r="0.25" fill="#C8F636"/>
<circle cx="563.25" cy="433.25" r="0.25" fill="#C8F636"/>
<circle cx="602.75" cy="433.25" r="0.25" fill="#C8F636"/>
<circle cx="642.25" cy="433.25" r="0.25" fill="#C8F636"/>
<circle cx="681.75" cy="433.25" r="0.25" fill="#C8F636"/>
<circle cx="721.25" cy="433.25" r="0.25" fill="#C8F636"/>
<circle cx="760.75" cy="433.25" r="0.25" fill="#C8F636"/>
<circle cx="800.25" cy="433.25" r="0.25" fill="#C8F636"/>
<circle cx="839.75" cy="433.25" r="0.25" fill="#C8F636"/>
<circle cx="444.25" cy="469.25" r="0.25" fill="#C8F636"/>
<circle cx="483.75" cy="469.25" r="0.25" fill="#C8F636"/>
<circle cx="523.25" cy="469.25" r="0.25" fill="#C8F636"/>
<circle cx="562.75" cy="469.25" r="0.25" fill="#C8F636"/>
<circle cx="602.25" cy="469.25" r="0.25" fill="#C8F636"/>
<circle cx="641.75" cy="469.25" r="0.25" fill="#C8F636"/>
<circle cx="681.25" cy="469.25" r="0.25" fill="#C8F636"/>
<circle cx="720.75" cy="469.25" r="0.25" fill="#C8F636"/>
<circle cx="760.25" cy="469.25" r="0.25" fill="#C8F636"/>
<circle cx="799.75" cy="469.25" r="0.25" fill="#C8F636"/>
<circle cx="839.25" cy="469.25" r="0.25" fill="#C8F636"/>
<circle cx="444.25" cy="505.25" r="0.25" fill="#C8F636"/>
<circle cx="483.75" cy="505.25" r="0.25" fill="#C8F636"/>
<circle cx="523.25" cy="505.25" r="0.25" fill="#C8F636"/>
<circle cx="562.75" cy="505.25" r="0.25" fill="#C8F636"/>
<circle cx="602.25" cy="505.25" r="0.25" fill="#C8F636"/>
<circle cx="641.75" cy="505.25" r="0.25" fill="#C8F636"/>
<circle cx="681.25" cy="505.25" r="0.25" fill="#C8F636"/>
<circle cx="720.75" cy="505.25" r="0.25" fill="#C8F636"/>
<circle cx="760.25" cy="505.25" r="0.25" fill="#C8F636"/>
<circle cx="799.75" cy="505.25" r="0.25" fill="#C8F636"/>
<circle cx="839.25" cy="505.25" r="0.25" fill="#C8F636"/>
<circle cx="444.25" cy="541.25" r="0.25" fill="#C8F636"/>
<circle cx="483.75" cy="541.25" r="0.25" fill="#C8F636"/>
<circle cx="523.25" cy="541.25" r="0.25" fill="#C8F636"/>
<circle cx="562.75" cy="541.25" r="0.25" fill="#C8F636"/>
<circle cx="602.25" cy="541.25" r="0.25" fill="#C8F636"/>
<circle cx="641.75" cy="541.25" r="0.25" fill="#C8F636"/>
<circle cx="681.25" cy="541.25" r="0.25" fill="#C8F636"/>
<circle cx="720.75" cy="541.25" r="0.25" fill="#C8F636"/>
<circle cx="760.25" cy="541.25" r="0.25" fill="#C8F636"/>
<circle cx="799.75" cy="541.25" r="0.25" fill="#C8F636"/>
<circle cx="839.25" cy="541.25" r="0.25" fill="#C8F636"/>
<circle cx="443.75" cy="577.25" r="0.25" fill="#C8F636"/>
<circle cx="483.25" cy="577.25" r="0.25" fill="#C8F636"/>
<circle cx="522.75" cy="577.25" r="0.25" fill="#C8F636"/>
<circle cx="562.25" cy="577.25" r="0.25" fill="#C8F636"/>
<circle cx="601.75" cy="577.25" r="0.25" fill="#C8F636"/>
<circle cx="641.25" cy="577.25" r="0.25" fill="#C8F636"/>
<circle cx="680.75" cy="577.25" r="0.25" fill="#C8F636"/>
<circle cx="720.25" cy="577.25" r="0.25" fill="#C8F636"/>
<circle cx="759.75" cy="577.25" r="0.25" fill="#C8F636"/>
<circle cx="799.25" cy="577.25" r="0.25" fill="#C8F636"/>
<circle cx="838.75" cy="577.25" r="0.25" fill="#C8F636"/>
<circle cx="443.25" cy="613.25" r="0.25" fill="#C8F636"/>
<circle cx="482.75" cy="613.25" r="0.25" fill="#C8F636"/>
<circle cx="522.25" cy="613.25" r="0.25" fill="#C8F636"/>
<circle cx="561.75" cy="613.25" r="0.25" fill="#C8F636"/>
<circle cx="601.25" cy="613.25" r="0.25" fill="#C8F636"/>
<circle cx="640.75" cy="613.25" r="0.25" fill="#C8F636"/>
<circle cx="680.25" cy="613.25" r="0.25" fill="#C8F636"/>
<circle cx="719.75" cy="613.25" r="0.25" fill="#C8F636"/>
<circle cx="759.25" cy="613.25" r="0.25" fill="#C8F636"/>
<circle cx="798.75" cy="613.25" r="0.25" fill="#C8F636"/>
<circle cx="838.25" cy="613.25" r="0.25" fill="#C8F636"/>
<circle cx="442.75" cy="649.25" r="0.25" fill="#C8F636"/>
<circle cx="482.25" cy="649.25" r="0.25" fill="#C8F636"/>
<circle cx="521.75" cy="649.25" r="0.25" fill="#C8F636"/>
<circle cx="561.25" cy="649.25" r="0.25" fill="#C8F636"/>
<circle cx="600.75" cy="649.25" r="0.25" fill="#C8F636"/>
<circle cx="640.25" cy="649.25" r="0.25" fill="#C8F636"/>
<circle cx="679.75" cy="649.25" r="0.25" fill="#C8F636"/>
<circle cx="719.25" cy="649.25" r="0.25" fill="#C8F636"/>
<circle cx="758.75" cy="649.25" r="0.25" fill="#C8F636"/>
<circle cx="798.25" cy="649.25" r="0.25" fill="#C8F636"/>
<circle cx="837.75" cy="649.25" r="0.25" fill="#C8F636"/>
<circle cx="442.25" cy="685.25" r="0.25" fill="#C8F636"/>
<circle cx="481.75" cy="685.25" r="0.25" fill="#C8F636"/>
<circle cx="521.25" cy="685.25" r="0.25" fill="#C8F636"/>
<circle cx="560.75" cy="685.25" r="0.25" fill="#C8F636"/>
<circle cx="600.25" cy="685.25" r="0.25" fill="#C8F636"/>
<circle cx="639.75" cy="685.25" r="0.25" fill="#C8F636"/>
<circle cx="679.25" cy="685.25" r="0.25" fill="#C8F636"/>
<circle cx="718.75" cy="685.25" r="0.25" fill="#C8F636"/>
<circle cx="758.25" cy="685.25" r="0.25" fill="#C8F636"/>
<circle cx="797.75" cy="685.25" r="0.25" fill="#C8F636"/>
<circle cx="837.25" cy="685.25" r="0.25" fill="#C8F636"/>
<circle cx="441.75" cy="721.25" r="0.25" fill="#C8F636"/>
<circle cx="481.25" cy="721.25" r="0.25" fill="#C8F636"/>
<circle cx="520.75" cy="721.25" r="0.25" fill="#C8F636"/>
<circle cx="560.25" cy="721.25" r="0.25" fill="#C8F636"/>
<circle cx="599.75" cy="721.25" r="0.25" fill="#C8F636"/>
<circle cx="639.25" cy="721.25" r="0.25" fill="#C8F636"/>
<circle cx="678.75" cy="721.25" r="0.25" fill="#C8F636"/>
<circle cx="718.25" cy="721.25" r="0.25" fill="#C8F636"/>
<circle cx="757.75" cy="721.25" r="0.25" fill="#C8F636"/>
<circle cx="797.25" cy="721.25" r="0.25" fill="#C8F636"/>
<circle cx="836.75" cy="721.25" r="0.25" fill="#C8F636"/>
<circle cx="441.25" cy="757.25" r="0.25" fill="#C8F636"/>
<circle cx="480.75" cy="757.25" r="0.25" fill="#C8F636"/>
<circle cx="520.25" cy="757.25" r="0.25" fill="#C8F636"/>
<circle cx="559.75" cy="757.25" r="0.25" fill="#C8F636"/>
<circle cx="599.25" cy="757.25" r="0.25" fill="#C8F636"/>
<circle cx="638.75" cy="757.25" r="0.25" fill="#C8F636"/>
<circle cx="678.25" cy="757.25" r="0.25" fill="#C8F636"/>
<circle cx="717.75" cy="757.25" r="0.25" fill="#C8F636"/>
<circle cx="757.25" cy="757.25" r="0.25" fill="#C8F636"/>
<circle cx="796.75" cy="757.25" r="0.25" fill="#C8F636"/>
<circle cx="836.25" cy="757.25" r="0.25" fill="#C8F636"/>
</svg>
