<svg width="2194" height="1650" viewBox="0 0 2194 1650" fill="none" xmlns="http://www.w3.org/2000/svg">
<path d="M1094 1641L1819 1279.26L1819 552L1094 913.743L1094 1641Z" stroke="#C8F636" stroke-opacity="0.5" stroke-width="10"/>
<path d="M731 1094L1094 913.959L1094 552L731 732.041L731 1094Z" stroke="#C8F636" stroke-opacity="0.5" stroke-width="10"/>
<path d="M4.99994 1458L368 1277.63L368 915L4.99997 1095.37L4.99994 1458Z" stroke="#C8F636" stroke-opacity="0.5" stroke-width="10"/>
<path d="M1642 823L2006 642.959L2006 281L1642 461.041L1642 823Z" stroke="#C8F636" stroke-opacity="0.5" stroke-width="10"/>
<path d="M731 732L548 641.647L548 460L731 550.353L731 732Z" stroke="#C8F636" stroke-opacity="0.5" stroke-width="10"/>
<path d="M1094 281L1277 190.647L1277 9.00003L1094 99.3527L1094 281Z" stroke="#C8F636" stroke-opacity="0.5" stroke-width="10"/>
<path d="M552 1549L368 1458.65L368 1277L552 1367.35L552 1549Z" stroke="#C8F636" stroke-opacity="0.5" stroke-width="10"/>
<path d="M2189 915L2006 824.647L2006 643L2189 733.353L2189 915Z" stroke="#C8F636" stroke-opacity="0.5" stroke-width="10"/>
<path d="M188 643L5.00001 552.315L5.00002 370L188 460.685L188 643Z" stroke="#C8F636" stroke-opacity="0.5" stroke-width="10"/>
<path d="M459.935 1151V678.273H531.26V1089.6H745.464V1151H459.935ZM782.29 1151V796.455H851.306V1151H782.29ZM817.145 741.749C805.142 741.749 794.832 737.748 786.214 729.746C777.751 721.591 773.519 711.896 773.519 700.663C773.519 689.275 777.751 679.581 786.214 671.579C794.832 663.423 805.142 659.345 817.145 659.345C829.147 659.345 839.381 663.423 847.844 671.579C856.462 679.581 860.77 689.275 860.77 700.663C860.77 711.896 856.462 721.591 847.844 729.746C839.381 737.748 829.147 741.749 817.145 741.749ZM974.172 940.489V1151H905.155V796.455H971.402V854.16H975.787C983.943 835.387 996.715 820.306 1014.1 808.919C1031.65 797.532 1053.73 791.838 1080.35 791.838C1104.51 791.838 1125.67 796.916 1143.83 807.072C1161.99 817.075 1176.07 832.001 1186.07 851.852C1196.07 871.703 1201.07 896.247 1201.07 925.485V1151H1132.06V933.795C1132.06 908.096 1125.36 888.015 1111.97 873.55C1098.59 858.931 1080.2 851.621 1056.81 851.621C1040.8 851.621 1026.57 855.084 1014.1 862.009C1001.79 868.933 992.022 879.089 984.79 892.477C977.711 905.711 974.172 921.715 974.172 940.489ZM1403.28 1291.34C1375.12 1291.34 1350.89 1287.65 1330.57 1280.26C1310.41 1272.88 1293.95 1263.1 1281.18 1250.95C1268.4 1238.79 1258.86 1225.48 1252.55 1211.01L1311.88 1186.55C1316.03 1193.32 1321.57 1200.47 1328.5 1208.01C1335.57 1215.71 1345.11 1222.25 1357.12 1227.63C1369.27 1233.02 1384.89 1235.71 1403.97 1235.71C1430.14 1235.71 1451.76 1229.33 1468.84 1216.55C1485.92 1203.94 1494.46 1183.78 1494.46 1156.08V1086.37H1490.07C1485.92 1093.91 1479.92 1102.3 1472.07 1111.53C1464.37 1120.76 1453.76 1128.76 1440.21 1135.53C1426.67 1142.31 1409.05 1145.69 1387.36 1145.69C1359.35 1145.69 1334.11 1139.15 1311.65 1126.07C1289.33 1112.84 1271.64 1093.37 1258.56 1067.67C1245.63 1041.82 1239.17 1010.04 1239.17 972.342C1239.17 934.641 1245.55 902.326 1258.33 875.396C1271.25 848.467 1288.95 827.847 1311.41 813.536C1333.88 799.071 1359.35 791.838 1387.82 791.838C1409.82 791.838 1427.6 795.531 1441.14 802.918C1454.68 810.15 1465.22 818.614 1472.76 828.308C1480.45 838.003 1486.38 846.543 1490.53 853.93H1495.61V796.455H1563.24V1158.85C1563.24 1189.32 1556.16 1214.32 1542.01 1233.87C1527.85 1253.41 1508.69 1267.87 1484.53 1277.26C1460.53 1286.65 1433.44 1291.34 1403.28 1291.34ZM1402.59 1088.45C1422.44 1088.45 1439.21 1083.83 1452.91 1074.6C1466.76 1065.21 1477.22 1051.82 1484.3 1034.43C1491.53 1016.89 1495.15 995.886 1495.15 971.419C1495.15 947.567 1491.61 926.562 1484.53 908.404C1477.45 890.246 1467.07 876.089 1453.37 865.933C1439.68 855.622 1422.75 850.467 1402.59 850.467C1381.82 850.467 1364.5 855.853 1350.65 866.625C1336.81 877.243 1326.34 891.708 1319.26 910.02C1312.34 928.332 1308.88 948.798 1308.88 971.419C1308.88 994.655 1312.41 1015.04 1319.49 1032.59C1326.57 1050.13 1337.04 1063.83 1350.89 1073.67C1364.89 1083.52 1382.12 1088.45 1402.59 1088.45ZM1766.15 1158.16C1732.91 1158.16 1703.9 1150.54 1679.13 1135.3C1654.35 1120.07 1635.12 1098.76 1621.42 1071.37C1607.72 1043.97 1600.88 1011.97 1600.88 975.343C1600.88 938.565 1607.72 906.404 1621.42 878.859C1635.12 851.314 1654.35 829.924 1679.13 814.69C1703.9 799.455 1732.91 791.838 1766.15 791.838C1799.39 791.838 1828.39 799.455 1853.17 814.69C1877.94 829.924 1897.18 851.314 1910.87 878.859C1924.57 906.404 1931.42 938.565 1931.42 975.343C1931.42 1011.97 1924.57 1043.97 1910.87 1071.37C1897.18 1098.76 1877.94 1120.07 1853.17 1135.3C1828.39 1150.54 1799.39 1158.16 1766.15 1158.16ZM1766.38 1100.22C1787.92 1100.22 1805.77 1094.53 1819.93 1083.14C1834.09 1071.75 1844.55 1056.59 1851.32 1037.67C1858.25 1018.74 1861.71 997.887 1861.71 975.112C1861.71 952.491 1858.25 931.717 1851.32 912.79C1844.55 893.708 1834.09 878.397 1819.93 866.856C1805.77 855.315 1787.92 849.544 1766.38 849.544C1744.68 849.544 1726.68 855.315 1712.36 866.856C1698.21 878.397 1687.67 893.708 1680.74 912.79C1673.97 931.717 1670.59 952.491 1670.59 975.112C1670.59 997.887 1673.97 1018.74 1680.74 1037.67C1687.67 1056.59 1698.21 1071.75 1712.36 1083.14C1726.68 1094.53 1744.68 1100.22 1766.38 1100.22Z" fill="#C8F736"/>
<ellipse cx="1819.5" cy="1640.5" rx="3.5" ry="4.5" transform="rotate(-180 1819.5 1640.5)" fill="#C8F636"/>
<ellipse cx="1457" cy="1640.5" rx="4" ry="4.5" transform="rotate(-180 1457 1640.5)" fill="#C8F636"/>
<ellipse cx="1093" cy="1640.5" rx="4" ry="4.5" transform="rotate(-180 1093 1640.5)" fill="#C8F636"/>
<ellipse cx="730.5" cy="1640.5" rx="3.5" ry="4.5" transform="rotate(-180 730.5 1640.5)" fill="#C8F636"/>
<ellipse cx="368" cy="1640.5" rx="4" ry="4.5" transform="rotate(-180 368 1640.5)" fill="#C8F636"/>
<ellipse cx="1819.5" cy="1277.5" rx="3.5" ry="4.5" transform="rotate(-180 1819.5 1277.5)" fill="#C8F636"/>
<ellipse cx="1819.5" cy="914.5" rx="3.5" ry="4.5" transform="rotate(-180 1819.5 914.5)" fill="#C8F636"/>
<ellipse cx="1819.5" cy="551.5" rx="3.5" ry="4.5" transform="rotate(-180 1819.5 551.5)" fill="#C8F636"/>
<ellipse cx="1819.5" cy="189" rx="3.5" ry="4" transform="rotate(-180 1819.5 189)" fill="#C8F636"/>
<ellipse cx="1457" cy="1277.5" rx="4" ry="4.5" transform="rotate(-180 1457 1277.5)" fill="#C8F636"/>
<ellipse cx="1457" cy="914.5" rx="4" ry="4.5" transform="rotate(-180 1457 914.5)" fill="#C8F636"/>
<ellipse cx="1457" cy="551.5" rx="4" ry="4.5" transform="rotate(-180 1457 551.5)" fill="#C8F636"/>
<ellipse cx="1457" cy="189" rx="4" ry="4" transform="rotate(-180 1457 189)" fill="#C8F636"/>
<ellipse cx="1093" cy="1277.5" rx="4" ry="4.5" transform="rotate(-180 1093 1277.5)" fill="#C8F636"/>
<ellipse cx="1093" cy="914.5" rx="4" ry="4.5" transform="rotate(-180 1093 914.5)" fill="#C8F636"/>
<ellipse cx="1093" cy="551.5" rx="4" ry="4.5" transform="rotate(-180 1093 551.5)" fill="#C8F636"/>
<ellipse cx="1093" cy="189" rx="4" ry="4" transform="rotate(-180 1093 189)" fill="#C8F636"/>
<ellipse cx="730.5" cy="1277.5" rx="3.5" ry="4.5" transform="rotate(-180 730.5 1277.5)" fill="#C8F636"/>
<ellipse cx="730.5" cy="914.5" rx="3.5" ry="4.5" transform="rotate(-180 730.5 914.5)" fill="#C8F636"/>
<ellipse cx="730.5" cy="551.5" rx="3.5" ry="4.5" transform="rotate(-180 730.5 551.5)" fill="#C8F636"/>
<ellipse cx="730.5" cy="189" rx="3.5" ry="4" transform="rotate(-180 730.5 189)" fill="#C8F636"/>
<ellipse cx="368" cy="1277.5" rx="4" ry="4.5" transform="rotate(-180 368 1277.5)" fill="#C8F636"/>
<ellipse cx="368" cy="914.5" rx="4" ry="4.5" transform="rotate(-180 368 914.5)" fill="#C8F636"/>
<ellipse cx="368" cy="551.5" rx="4" ry="4.5" transform="rotate(-180 368 551.5)" fill="#C8F636"/>
<ellipse cx="368" cy="189" rx="4" ry="4" transform="rotate(-180 368 189)" fill="#C8F636"/>
</svg>
