<svg width="194" height="73" viewBox="0 0 194 73" fill="none" xmlns="http://www.w3.org/2000/svg">
<path d="M7.5 41.6744V23.4884C7.5 19.3698 10.875 16 15 16C19.125 16 22.5 19.3698 22.5 23.4884V41.6744C22.5 45.793 19.125 49.1628 15 49.1628C10.875 49.1628 7.5 45.793 7.5 41.6744ZM30 41.6744C30 41.086 29.5179 40.6047 28.9286 40.6047C28.3393 40.6047 27.8571 41.086 27.8571 41.6744C27.8571 48.7349 22.0714 54.5116 15 54.5116C7.92857 54.5116 2.14286 48.7349 2.14286 41.6744C2.14286 41.086 1.66071 40.6047 1.07143 40.6047C0.482143 40.6047 0 41.086 0 41.6744C0 49.5907 6.16071 56.0628 13.9286 56.5977V59.8605H10.1786C9.58929 59.8605 9.10714 60.3419 9.10714 60.9302C9.10714 61.5186 9.58929 62 10.1786 62H19.8214C20.4107 62 20.8929 61.5186 20.8929 60.9302C20.8929 60.3419 20.4107 59.8605 19.8214 59.8605H16.0714V56.5977C23.8393 56.0628 30 49.5907 30 41.6744Z" fill="url(#paint0_linear_4_6)"/>
<path d="M46.32 60V17.82H54.48V60H46.32ZM52.32 60V52.74H73.8V60H52.32ZM78.8198 60V31.02H86.7398V60H78.8198ZM82.7798 26.34C81.4998 26.34 80.4398 25.92 79.5998 25.08C78.7598 24.2 78.3398 23.12 78.3398 21.84C78.3398 20.6 78.7598 19.54 79.5998 18.66C80.4398 17.78 81.4998 17.34 82.7798 17.34C84.0998 17.34 85.1598 17.78 85.9598 18.66C86.7998 19.54 87.2198 20.6 87.2198 21.84C87.2198 23.12 86.7998 24.2 85.9598 25.08C85.1598 25.92 84.0998 26.34 82.7798 26.34ZM113.203 60V43.38C113.203 41.66 112.663 40.26 111.583 39.18C110.503 38.1 109.103 37.56 107.383 37.56C106.263 37.56 105.263 37.8 104.383 38.28C103.503 38.76 102.803 39.44 102.283 40.32C101.803 41.2 101.563 42.22 101.563 43.38L98.5027 41.82C98.5027 39.54 98.9827 37.56 99.9427 35.88C100.943 34.16 102.303 32.82 104.023 31.86C105.783 30.9 107.763 30.42 109.963 30.42C112.083 30.42 113.983 30.96 115.663 32.04C117.343 33.08 118.663 34.46 119.623 36.18C120.583 37.86 121.063 39.68 121.063 41.64V60H113.203ZM93.7027 60V31.02H101.563V60H93.7027ZM139.514 72.84C136.434 72.84 133.714 72.28 131.354 71.16C128.994 70.08 127.114 68.54 125.714 66.54L130.694 61.56C131.814 62.88 133.054 63.88 134.414 64.56C135.814 65.28 137.494 65.64 139.454 65.64C141.894 65.64 143.814 65.02 145.214 63.78C146.654 62.54 147.374 60.82 147.374 58.62V51.36L148.694 45L147.434 38.64V31.02H155.234V58.5C155.234 61.38 154.554 63.88 153.194 66C151.874 68.16 150.034 69.84 147.674 71.04C145.314 72.24 142.594 72.84 139.514 72.84ZM139.154 59.22C136.554 59.22 134.214 58.6 132.134 57.36C130.054 56.08 128.414 54.34 127.214 52.14C126.054 49.94 125.474 47.48 125.474 44.76C125.474 42.04 126.054 39.6 127.214 37.44C128.414 35.28 130.054 33.58 132.134 32.34C134.214 31.06 136.554 30.42 139.154 30.42C141.314 30.42 143.214 30.84 144.854 31.68C146.534 32.52 147.854 33.68 148.814 35.16C149.774 36.6 150.294 38.3 150.374 40.26V49.38C150.294 51.3 149.754 53.02 148.754 54.54C147.794 56.02 146.474 57.18 144.794 58.02C143.154 58.82 141.274 59.22 139.154 59.22ZM140.714 52.08C142.154 52.08 143.394 51.78 144.434 51.18C145.514 50.54 146.354 49.68 146.954 48.6C147.554 47.48 147.854 46.22 147.854 44.82C147.854 43.38 147.554 42.12 146.954 41.04C146.354 39.96 145.514 39.12 144.434 38.52C143.394 37.88 142.154 37.56 140.714 37.56C139.274 37.56 138.014 37.88 136.934 38.52C135.854 39.12 135.014 39.98 134.414 41.1C133.814 42.18 133.514 43.42 133.514 44.82C133.514 46.18 133.814 47.42 134.414 48.54C135.014 49.62 135.854 50.48 136.934 51.12C138.014 51.76 139.274 52.08 140.714 52.08Z" fill="white"/>
<path d="M175.76 60.6C172.84 60.6 170.2 59.94 167.84 58.62C165.52 57.26 163.66 55.44 162.26 53.16C160.9 50.84 160.22 48.26 160.22 45.42C160.22 42.58 160.9 40.04 162.26 37.8C163.62 35.52 165.48 33.72 167.84 32.4C170.2 31.04 172.82 30.36 175.7 30.36C178.66 30.36 181.3 31.04 183.62 32.4C185.98 33.72 187.84 35.52 189.2 37.8C190.56 40.04 191.24 42.58 191.24 45.42C191.24 48.26 190.56 50.84 189.2 53.16C187.84 55.44 185.98 57.26 183.62 58.62C181.3 59.94 178.68 60.6 175.76 60.6ZM175.7 53.28C177.18 53.28 178.48 52.96 179.6 52.32C180.76 51.64 181.64 50.72 182.24 49.56C182.88 48.36 183.2 47 183.2 45.48C183.2 43.96 182.88 42.62 182.24 41.46C181.6 40.3 180.72 39.4 179.6 38.76C178.48 38.08 177.18 37.74 175.7 37.74C174.26 37.74 172.98 38.08 171.86 38.76C170.74 39.4 169.86 40.3 169.22 41.46C168.58 42.62 168.26 43.96 168.26 45.48C168.26 47 168.58 48.36 169.22 49.56C169.86 50.72 170.74 51.64 171.86 52.32C172.98 52.96 174.26 53.28 175.7 53.28Z" fill="url(#paint1_linear_4_6)"/>
<defs>
<linearGradient id="paint0_linear_4_6" x1="15" y1="16" x2="15" y2="62" gradientUnits="userSpaceOnUse">
<stop stop-color="#5C5C7B"/>
<stop offset="1" stop-color="white"/>
</linearGradient>
<linearGradient id="paint1_linear_4_6" x1="118" y1="0" x2="118" y2="60" gradientUnits="userSpaceOnUse">
<stop offset="0.416667" stop-color="#5C5C7B"/>
<stop offset="1" stop-color="white"/>
</linearGradient>
</defs>
</svg>
