<svg width="218" height="91" viewBox="0 0 218 91" fill="none" xmlns="http://www.w3.org/2000/svg">
<path d="M46.25 53.6512V39.0233C46.25 35.7105 49.0625 33 52.5 33C55.9375 33 58.75 35.7105 58.75 39.0233V53.6512C58.75 56.964 55.9375 59.6744 52.5 59.6744C49.0625 59.6744 46.25 56.964 46.25 53.6512ZM65 53.6512C65 53.1779 64.5982 52.7907 64.1071 52.7907C63.6161 52.7907 63.2143 53.1779 63.2143 53.6512C63.2143 59.3302 58.3929 63.9767 52.5 63.9767C46.6071 63.9767 41.7857 59.3302 41.7857 53.6512C41.7857 53.1779 41.3839 52.7907 40.8929 52.7907C40.4018 52.7907 40 53.1779 40 53.6512C40 60.0186 45.1339 65.2244 51.6071 65.6547V68.2791H48.4821C47.9911 68.2791 47.5893 68.6663 47.5893 69.1395C47.5893 69.6128 47.9911 70 48.4821 70H56.5179C57.0089 70 57.4107 69.6128 57.4107 69.1395C57.4107 68.6663 57.0089 68.2791 56.5179 68.2791H53.3929V65.6547C59.8661 65.2244 65 60.0186 65 53.6512Z" fill="#9CFFB8"/>
<path d="M92.272 32.76C95.824 32.76 98.512 33.504 100.336 34.992C102.208 36.48 103.48 38.472 104.152 40.968C104.872 43.416 105.232 46.152 105.232 49.176V67.608C105.232 68.856 104.824 69.912 104.008 70.776C103.192 71.592 102.16 72 100.912 72C99.664 72 98.632 71.592 97.816 70.776C97 69.912 96.592 68.856 96.592 67.608V49.176C96.592 47.592 96.376 46.176 95.944 44.928C95.56 43.632 94.84 42.6 93.784 41.832C92.728 41.064 91.216 40.68 89.248 40.68C87.328 40.68 85.696 41.064 84.352 41.832C83.056 42.6 82.048 43.632 81.328 44.928C80.656 46.176 80.32 47.592 80.32 49.176V67.608C80.32 68.856 79.912 69.912 79.096 70.776C78.28 71.592 77.248 72 76 72C74.752 72 73.72 71.592 72.904 70.776C72.088 69.912 71.68 68.856 71.68 67.608V37.872C71.68 36.624 72.088 35.592 72.904 34.776C73.72 33.912 74.752 33.48 76 33.48C77.248 33.48 78.28 33.912 79.096 34.776C79.912 35.592 80.32 36.624 80.32 37.872V40.968L79.24 40.752C79.672 39.936 80.296 39.072 81.112 38.16C81.928 37.2 82.888 36.312 83.992 35.496C85.096 34.68 86.344 34.032 87.736 33.552C89.128 33.024 90.64 32.76 92.272 32.76ZM130.555 32.76C132.571 32.76 134.419 33.072 136.099 33.696C137.779 34.32 139.219 35.112 140.419 36.072C141.667 37.032 142.627 38.016 143.299 39.024C144.019 39.984 144.379 40.8 144.379 41.472L142.507 42.408V37.152C142.507 35.904 142.915 34.872 143.731 34.056C144.547 33.192 145.579 32.76 146.827 32.76C148.075 32.76 149.107 33.168 149.923 33.984C150.739 34.8 151.147 35.856 151.147 37.152V69.192C151.147 73.368 150.235 76.704 148.411 79.2C146.635 81.744 144.283 83.568 141.355 84.672C138.427 85.824 135.283 86.4 131.923 86.4C130.963 86.4 129.715 86.28 128.179 86.04C126.643 85.8 125.179 85.512 123.787 85.176C122.395 84.84 121.339 84.528 120.619 84.24C119.179 83.616 118.171 82.824 117.595 81.864C117.067 80.952 116.971 79.968 117.307 78.912C117.739 77.52 118.435 76.56 119.395 76.032C120.355 75.552 121.363 75.504 122.419 75.888C122.899 76.032 123.691 76.32 124.795 76.752C125.899 77.184 127.099 77.568 128.395 77.904C129.739 78.288 130.915 78.48 131.923 78.48C135.523 78.48 138.187 77.76 139.915 76.32C141.643 74.88 142.507 72.888 142.507 70.344V64.08L143.371 64.728C143.371 65.352 143.035 66.12 142.363 67.032C141.739 67.896 140.851 68.76 139.699 69.624C138.595 70.488 137.275 71.232 135.739 71.856C134.203 72.432 132.571 72.72 130.843 72.72C127.435 72.72 124.363 71.88 121.627 70.2C118.891 68.472 116.731 66.12 115.147 63.144C113.563 60.12 112.771 56.664 112.771 52.776C112.771 48.84 113.563 45.384 115.147 42.408C116.731 39.384 118.867 37.032 121.555 35.352C124.243 33.624 127.243 32.76 130.555 32.76ZM131.923 40.68C129.763 40.68 127.867 41.208 126.235 42.264C124.603 43.32 123.331 44.76 122.419 46.584C121.507 48.408 121.051 50.472 121.051 52.776C121.051 55.032 121.507 57.072 122.419 58.896C123.331 60.72 124.603 62.16 126.235 63.216C127.867 64.272 129.763 64.8 131.923 64.8C134.131 64.8 136.051 64.272 137.683 63.216C139.315 62.16 140.587 60.72 141.499 58.896C142.411 57.072 142.867 55.032 142.867 52.776C142.867 50.472 142.411 48.408 141.499 46.584C140.587 44.76 139.315 43.32 137.683 42.264C136.051 41.208 134.131 40.68 131.923 40.68ZM196.446 52.776C196.446 56.712 195.558 60.192 193.782 63.216C192.054 66.192 189.702 68.52 186.726 70.2C183.798 71.88 180.51 72.72 176.862 72.72C173.214 72.72 169.902 71.88 166.926 70.2C163.998 68.52 161.646 66.192 159.87 63.216C158.142 60.192 157.278 56.712 157.278 52.776C157.278 48.84 158.142 45.384 159.87 42.408C161.646 39.384 163.998 37.032 166.926 35.352C169.902 33.624 173.214 32.76 176.862 32.76C180.51 32.76 183.798 33.624 186.726 35.352C189.702 37.032 192.054 39.384 193.782 42.408C195.558 45.384 196.446 48.84 196.446 52.776ZM187.806 52.776C187.806 50.328 187.302 48.216 186.294 46.44C185.334 44.616 184.014 43.2 182.334 42.192C180.702 41.184 178.878 40.68 176.862 40.68C174.846 40.68 172.998 41.184 171.318 42.192C169.686 43.2 168.366 44.616 167.358 46.44C166.398 48.216 165.918 50.328 165.918 52.776C165.918 55.176 166.398 57.288 167.358 59.112C168.366 60.888 169.686 62.28 171.318 63.288C172.998 64.296 174.846 64.8 176.862 64.8C178.878 64.8 180.702 64.296 182.334 63.288C184.014 62.28 185.334 60.888 186.294 59.112C187.302 57.288 187.806 55.176 187.806 52.776Z" fill="white"/>
<path d="M207.824 71.928C206.432 71.928 205.352 71.568 204.584 70.848C203.864 70.08 203.504 69 203.504 67.608V66.384C203.504 64.992 203.864 63.936 204.584 63.216C205.352 62.448 206.432 62.064 207.824 62.064H208.76C210.152 62.064 211.208 62.448 211.928 63.216C212.696 63.936 213.08 64.992 213.08 66.384V67.608C213.08 69 212.696 70.08 211.928 70.848C211.208 71.568 210.152 71.928 208.76 71.928H207.824Z" fill="#9CFFB8"/>
<path d="M33.192 63.576C34.44 63.576 35.472 63.984 36.288 64.8C37.152 65.568 37.584 66.576 37.584 67.824C37.584 69.024 37.152 70.032 36.288 70.848C35.472 71.616 34.44 72 33.192 72H9.792C8.544 72 7.488 71.592 6.624 70.776C5.808 69.912 5.4 68.856 5.4 67.608V25.992C5.4 24.744 5.832 23.712 6.696 22.896C7.56 22.032 8.664 21.6 10.008 21.6C11.16 21.6 12.168 22.032 13.032 22.896C13.944 23.712 14.4 24.744 14.4 25.992V64.8L12.816 63.576H33.192Z" fill="white"/>
</svg>
